<svg width="421" height="433" viewBox="0 0 421 433" fill="none" xmlns="http://www.w3.org/2000/svg">
<path d="M176.725 198.406C177.361 198.374 177.997 198.352 178.634 198.338C184.001 198.24 187.812 199.744 191.647 203.57L191.689 199.328C195.185 199.385 198.681 199.389 202.177 199.339L202.192 225.562C202.196 231.573 202.774 239.235 201.421 245.002C201.313 245.456 201.192 245.905 201.056 246.351C200.92 246.796 200.769 247.237 200.605 247.672C200.441 248.107 200.263 248.536 200.071 248.959C199.879 249.383 199.673 249.799 199.454 250.208C199.236 250.617 199.004 251.019 198.76 251.412C198.515 251.805 198.258 252.19 197.989 252.566C197.72 252.942 197.439 253.308 197.146 253.665C196.853 254.022 196.549 254.369 196.234 254.705C191.798 259.452 185.744 261.692 179.432 261.765C172.258 261.848 165.811 259.475 160.64 254.292L162.587 251.219C163.648 249.552 164.837 247.969 165.905 246.303C169.833 248.997 173.475 251.162 178.328 251.315C181.825 251.425 185.432 250.398 187.971 247.816C191.207 244.525 191.444 240.593 191.434 236.232C188.395 239.422 185.292 241.419 180.908 242.012C175.84 242.698 170.535 241.103 166.499 237.898C166.227 237.68 165.961 237.456 165.7 237.225C165.439 236.994 165.184 236.757 164.934 236.514C164.684 236.27 164.44 236.02 164.202 235.764C163.965 235.508 163.733 235.247 163.508 234.979C163.282 234.712 163.063 234.438 162.851 234.16C162.638 233.881 162.432 233.598 162.233 233.309C162.034 233.02 161.842 232.726 161.657 232.428C161.472 232.129 161.294 231.826 161.123 231.519C160.953 231.211 160.789 230.9 160.633 230.584C160.477 230.269 160.329 229.949 160.188 229.626C160.048 229.303 159.914 228.977 159.789 228.647C159.664 228.317 159.547 227.985 159.437 227.649C159.328 227.313 159.226 226.975 159.133 226.634C159.039 226.294 158.954 225.951 158.877 225.606C158.8 225.261 158.731 224.914 158.67 224.565C158.609 224.217 158.557 223.867 158.513 223.516C157.766 217.347 159.089 211.202 162.874 206.285C166.431 201.664 171.065 199.085 176.725 198.406ZM182.637 231.52C182.818 231.482 182.999 231.439 183.179 231.392C183.358 231.345 183.537 231.293 183.714 231.236C183.891 231.18 184.067 231.119 184.241 231.054C184.416 230.989 184.588 230.92 184.759 230.846C184.93 230.772 185.099 230.693 185.266 230.611C185.434 230.528 185.599 230.442 185.762 230.351C185.925 230.26 186.086 230.165 186.244 230.066C186.403 229.967 186.559 229.865 186.713 229.758C186.866 229.651 187.017 229.54 187.166 229.426C187.314 229.311 187.46 229.193 187.602 229.071C187.745 228.95 187.885 228.824 188.022 228.695C188.158 228.567 188.292 228.434 188.423 228.299C188.553 228.163 188.68 228.024 188.804 227.882C188.928 227.74 189.048 227.595 189.165 227.447C189.282 227.299 189.395 227.148 189.505 226.994C189.614 226.84 189.72 226.684 189.822 226.525C189.924 226.366 190.023 226.204 190.117 226.04C190.212 225.875 190.302 225.709 190.389 225.541C190.475 225.372 190.558 225.201 190.636 225.028C190.714 224.855 190.789 224.68 190.859 224.504C190.928 224.327 190.994 224.149 191.056 223.969C191.117 223.789 191.174 223.608 191.227 223.425C191.28 223.242 191.329 223.058 191.372 222.872C191.417 222.687 191.456 222.501 191.491 222.313C191.526 222.126 191.557 221.938 191.583 221.749C191.609 221.56 191.631 221.371 191.648 221.181C191.665 220.991 191.678 220.801 191.686 220.611C191.694 220.42 191.698 220.229 191.696 220.038C191.695 219.848 191.69 219.657 191.68 219.467C191.669 219.276 191.655 219.086 191.636 218.896C191.616 218.707 191.592 218.518 191.564 218.329C191.536 218.141 191.503 217.953 191.466 217.766C191.428 217.579 191.387 217.393 191.341 217.209C191.295 217.024 191.244 216.84 191.189 216.658C191.134 216.476 191.075 216.295 191.011 216.116C190.948 215.937 190.88 215.759 190.808 215.584C190.736 215.408 190.66 215.234 190.58 215.062C190.499 214.89 190.415 214.72 190.327 214.552C190.238 214.385 190.146 214.219 190.05 214.056C189.953 213.893 189.853 213.733 189.749 213.575C189.645 213.417 189.538 213.262 189.426 213.109C189.315 212.957 189.2 212.807 189.082 212.661C188.963 212.514 188.841 212.37 188.716 212.23C188.59 212.089 188.461 211.952 188.33 211.818C188.198 211.684 188.062 211.553 187.924 211.426C187.786 211.298 187.645 211.175 187.501 211.055C187.357 210.934 187.21 210.818 187.06 210.706C186.911 210.593 186.759 210.484 186.604 210.379C186.449 210.274 186.292 210.173 186.132 210.076C185.972 209.979 185.81 209.886 185.646 209.797C185.482 209.708 185.316 209.624 185.148 209.543C184.98 209.463 184.81 209.386 184.638 209.314C184.466 209.243 184.293 209.175 184.118 209.112C183.942 209.049 183.766 208.99 183.588 208.936C183.411 208.882 183.232 208.832 183.052 208.787C182.871 208.742 182.69 208.701 182.508 208.665C182.326 208.629 182.143 208.598 181.959 208.571C181.776 208.544 181.591 208.522 181.407 208.505C181.222 208.487 181.037 208.474 180.852 208.466C180.667 208.458 180.481 208.455 180.296 208.456C180.11 208.457 179.925 208.463 179.74 208.474C179.555 208.485 179.37 208.5 179.185 208.52C179.001 208.54 178.817 208.564 178.633 208.594C178.45 208.623 178.268 208.657 178.086 208.695C177.905 208.733 177.724 208.776 177.545 208.824C177.366 208.871 177.187 208.923 177.01 208.98C176.833 209.036 176.658 209.097 176.484 209.163C176.31 209.228 176.137 209.298 175.966 209.372C175.796 209.446 175.627 209.524 175.46 209.607C175.293 209.69 175.128 209.776 174.965 209.867C174.803 209.958 174.642 210.053 174.484 210.152C174.325 210.251 174.17 210.354 174.016 210.461C173.863 210.568 173.712 210.679 173.564 210.793C173.416 210.908 173.271 211.026 173.128 211.148C172.985 211.27 172.846 211.395 172.709 211.524C172.573 211.653 172.44 211.785 172.309 211.921C172.179 212.056 172.052 212.195 171.929 212.337C171.805 212.479 171.685 212.624 171.569 212.772C171.452 212.92 171.339 213.071 171.229 213.225C171.12 213.379 171.014 213.535 170.912 213.694C170.81 213.853 170.712 214.015 170.618 214.179C170.524 214.343 170.433 214.509 170.347 214.678C170.261 214.847 170.179 215.017 170.1 215.19C170.022 215.363 169.948 215.537 169.878 215.714C169.808 215.89 169.743 216.069 169.681 216.248C169.62 216.428 169.563 216.61 169.51 216.792C169.458 216.975 169.409 217.159 169.365 217.344C169.321 217.529 169.282 217.715 169.247 217.902C169.212 218.089 169.181 218.277 169.155 218.466C169.129 218.655 169.108 218.844 169.09 219.034C169.073 219.223 169.061 219.413 169.053 219.604C169.045 219.794 169.041 219.985 169.043 220.175C169.044 220.366 169.049 220.556 169.059 220.747C169.07 220.937 169.085 221.127 169.104 221.316C169.123 221.506 169.147 221.695 169.175 221.883C169.203 222.072 169.236 222.259 169.273 222.446C169.311 222.632 169.352 222.818 169.398 223.003C169.444 223.187 169.495 223.371 169.55 223.553C169.604 223.735 169.663 223.915 169.727 224.094C169.79 224.273 169.858 224.451 169.93 224.626C170.002 224.802 170.078 224.976 170.158 225.147C170.238 225.319 170.323 225.489 170.411 225.656C170.499 225.824 170.591 225.989 170.688 226.152C170.784 226.315 170.884 226.475 170.987 226.633C171.091 226.791 171.199 226.946 171.31 227.099C171.421 227.251 171.536 227.401 171.654 227.547C171.773 227.694 171.894 227.837 172.02 227.978C172.145 228.119 172.273 228.256 172.405 228.39C172.537 228.524 172.672 228.654 172.81 228.781C172.948 228.909 173.089 229.032 173.232 229.153C173.376 229.273 173.523 229.389 173.672 229.501C173.822 229.614 173.974 229.723 174.129 229.828C174.283 229.933 174.44 230.034 174.6 230.131C174.759 230.228 174.921 230.321 175.085 230.41C175.249 230.499 175.414 230.584 175.582 230.664C175.75 230.745 175.92 230.821 176.092 230.893C176.263 230.965 176.437 231.033 176.611 231.096C176.786 231.159 176.962 231.218 177.14 231.272C177.317 231.327 177.496 231.376 177.676 231.422C177.856 231.467 178.037 231.508 178.219 231.544C178.401 231.58 178.584 231.612 178.767 231.639C178.95 231.666 179.134 231.688 179.319 231.706C179.504 231.724 179.688 231.736 179.873 231.745C180.058 231.753 180.244 231.757 180.429 231.756C180.614 231.755 180.799 231.749 180.984 231.739C181.169 231.728 181.354 231.713 181.539 231.693C181.723 231.674 181.906 231.65 182.089 231.621C182.273 231.592 182.455 231.558 182.637 231.52Z" fill="#2E79DF"/>
<path d="M227.715 198.398C228.923 198.285 230.19 198.276 231.406 198.278C236.739 198.29 241.907 200.043 245.71 203.989C251.118 209.599 251.613 216.363 251.553 223.827C241.009 223.623 230.394 223.762 219.848 223.853C220.218 225.438 220.62 226.938 221.425 228.36C221.517 228.518 221.612 228.675 221.711 228.829C221.81 228.983 221.913 229.134 222.019 229.283C222.125 229.432 222.235 229.578 222.348 229.721C222.461 229.864 222.578 230.004 222.698 230.142C222.818 230.279 222.941 230.413 223.067 230.545C223.193 230.676 223.323 230.803 223.456 230.928C223.588 231.052 223.723 231.173 223.861 231.291C224 231.409 224.141 231.523 224.284 231.633C224.428 231.744 224.574 231.851 224.723 231.954C224.872 232.057 225.023 232.157 225.177 232.252C225.331 232.348 225.486 232.439 225.644 232.526C225.802 232.614 225.962 232.698 226.124 232.777C226.286 232.857 226.45 232.932 226.616 233.003C226.781 233.075 226.948 233.142 227.117 233.204C227.286 233.267 227.456 233.326 227.627 233.38C227.799 233.434 227.972 233.484 228.146 233.529C232.165 234.616 236.503 233.78 239.723 231.082C240.36 230.55 241.682 229.142 242.444 228.907C242.972 228.745 243.112 229.024 243.521 229.307C245.519 230.817 247.407 232.59 249.319 234.222C246.367 238.739 241.853 241.62 236.676 242.676C230.657 243.904 223.839 242.875 218.725 239.279C213.913 235.895 210.826 230.768 209.811 224.881C209.743 224.498 209.684 224.113 209.634 223.727C209.584 223.34 209.544 222.953 209.513 222.565C209.482 222.177 209.46 221.788 209.448 221.399C209.436 221.009 209.433 220.62 209.439 220.23C209.445 219.841 209.461 219.452 209.486 219.063C209.511 218.674 209.546 218.286 209.59 217.899C209.634 217.512 209.687 217.127 209.749 216.742C209.811 216.358 209.883 215.976 209.964 215.595C210.045 215.215 210.135 214.836 210.234 214.46C210.333 214.084 210.441 213.711 210.558 213.34C210.675 212.97 210.801 212.602 210.935 212.238C211.07 211.874 211.213 211.514 211.365 211.157C211.518 210.8 211.678 210.447 211.847 210.099C212.016 209.75 212.193 209.406 212.379 209.066C212.564 208.727 212.758 208.392 212.96 208.062C213.162 207.733 213.371 207.408 213.588 207.089C217.047 202.091 221.901 199.372 227.715 198.398ZM220.328 216.073C224.171 215.974 228.014 215.933 231.857 215.952C234.934 215.948 238.097 215.796 241.159 216.086C240.399 213.021 239.277 210.304 236.533 208.564C234.792 207.461 232.154 206.765 230.085 207.062C227.156 207.331 224.61 208.368 222.714 210.792C221.481 212.368 220.879 214.162 220.328 216.073Z" fill="#2E79DF"/>
<path d="M342.726 198.398C343.97 198.281 345.244 198.221 346.494 198.232C351.87 198.282 356.878 200.004 360.694 204.002C365.98 209.54 366.309 216.531 366.28 223.833C359.048 223.664 351.778 223.824 344.542 223.826C341.38 223.826 338.014 224.069 334.876 223.695C335.302 225.444 335.712 227.109 336.663 228.652C338.238 231.208 340.72 232.942 343.58 233.612C346.602 234.32 350.765 233.949 353.374 232.111C354.765 231.132 355.909 229.846 357.344 228.909C357.986 228.98 358.289 229.332 358.802 229.723C360.51 231.297 362.333 232.773 364.095 234.286C363.975 234.472 363.852 234.657 363.727 234.84C363.546 235.102 363.36 235.359 363.167 235.611C362.974 235.864 362.776 236.111 362.571 236.353C362.366 236.595 362.156 236.832 361.94 237.063C361.724 237.295 361.502 237.521 361.275 237.741C361.049 237.961 360.816 238.175 360.579 238.383C360.342 238.591 360.1 238.793 359.853 238.989C359.606 239.185 359.354 239.375 359.098 239.558C358.842 239.741 358.581 239.917 358.317 240.087C358.052 240.257 357.784 240.42 357.511 240.576C357.239 240.733 356.963 240.882 356.683 241.024C356.403 241.166 356.12 241.301 355.834 241.428C355.548 241.556 355.259 241.676 354.967 241.789C354.675 241.902 354.38 242.007 354.083 242.105C353.786 242.203 353.487 242.293 353.186 242.376C352.884 242.458 352.581 242.533 352.276 242.601C351.971 242.668 351.664 242.727 351.357 242.779C345.347 243.841 338.227 242.68 333.21 238.979C332.928 238.767 332.652 238.548 332.381 238.323C332.11 238.097 331.845 237.864 331.585 237.625C331.325 237.386 331.071 237.14 330.823 236.888C330.575 236.636 330.333 236.378 330.098 236.114C329.862 235.849 329.633 235.579 329.41 235.303C329.187 235.028 328.971 234.746 328.761 234.459C328.552 234.172 328.35 233.88 328.154 233.584C327.959 233.287 327.771 232.985 327.59 232.678C327.409 232.371 327.235 232.061 327.07 231.745C326.904 231.43 326.745 231.11 326.594 230.787C326.444 230.464 326.301 230.137 326.166 229.806C326.03 229.475 325.903 229.141 325.784 228.804C325.665 228.467 325.554 228.127 325.451 227.785C325.348 227.442 325.254 227.097 325.167 226.749C325.081 226.402 325.003 226.052 324.933 225.701C324.863 225.35 324.802 224.997 324.75 224.642C323.77 218.424 325.052 211.986 328.675 206.87C332.204 201.887 336.892 199.358 342.726 198.398ZM335.362 216.091C339.069 215.899 342.822 215.928 346.534 215.944C349.735 215.948 352.99 215.823 356.185 215.979C355.236 212.774 354.017 209.926 351.004 208.235C349.221 207.235 346.968 206.834 344.944 207.067C342.229 207.269 339.878 208.343 338.048 210.467C336.632 212.11 335.918 213.997 335.362 216.091Z" fill="#2E79DF"/>
<path d="M280.35 198.402C280.436 198.395 280.523 198.387 280.609 198.382C285.248 198.107 289.768 198.73 293.295 202.107C295.493 204.211 296.863 206.911 297.585 209.888C298.647 214.27 298.315 219.01 298.31 223.494C298.303 229.741 298.181 236.015 298.405 242.256C294.85 242.172 291.287 242.195 287.731 242.196L287.77 225.797C287.775 222.194 288.031 218.224 287.385 214.684C287.188 213.609 286.821 212.813 286.234 211.899C285.038 210.037 283.334 208.989 281.214 208.596C278.521 208.096 275.959 208.583 273.7 210.172C273.432 210.38 273.211 210.594 272.975 210.839C271.52 212.352 270.722 214.216 270.312 216.285C269.702 219.361 270.014 222.864 270.016 226.009L270.068 242.26C266.537 242.186 263.007 242.183 259.476 242.25C259.883 237.703 259.54 232.802 259.539 228.225L259.517 199.332C262.896 199.383 266.683 199.742 270.021 199.226L270.069 204.282C270.136 204.186 270.201 204.089 270.27 203.995C272.748 200.568 276.365 199.009 280.35 198.402Z" fill="#2E79DF"/>
<path d="M120.125 199.322C124.051 199.553 128.068 199.377 132.002 199.377L154.006 199.354C154.052 202.205 154.055 205.056 154.015 207.907C146.587 215.921 140.201 224.927 132.728 232.912C139.452 232.059 147.114 233.527 153.787 232.627C153.742 235.832 153.786 239.035 153.917 242.237C142.448 242.022 130.959 242.254 119.487 242.193C119.664 239.195 119.637 236.16 119.694 233.157C123.232 228.75 126.896 224.461 130.492 220.106C133.718 216.197 136.87 212.167 140.337 208.479C133.619 208.286 126.824 208.352 120.104 208.457C120.362 205.475 120.147 202.322 120.125 199.322Z" fill="#2E79DF"/>
<path d="M85.1214 199.336C88.6736 199.396 92.2258 199.388 95.7779 199.314C94.7275 202.266 93.5813 205.18 92.5024 208.121C91.4277 210.54 90.5615 213.101 89.6183 215.578L82.9259 233.338C81.8155 236.298 80.8139 239.336 79.5711 242.237C75.5987 242.193 71.6262 242.191 67.6536 242.231C66.9822 240.328 66.1328 238.473 65.4059 236.588L59.7368 221.974C56.7635 214.461 53.9197 206.897 50.8613 199.42C54.6256 199.218 58.4697 199.374 62.2455 199.331C63.2894 202.696 64.6289 205.997 65.8672 209.292C68.4372 216.132 71.1034 222.931 73.4962 229.838C77.2922 219.678 80.8884 209.308 85.1214 199.336Z" fill="#2E79DF"/>
<path d="M329.491 108.249L329.618 108.381C329.017 109.758 327.637 111.052 326.8 112.329C324.923 115.195 324.343 119.382 324.975 122.752C326.77 132.324 336.806 135.778 344.323 139.417C347.053 140.735 349.676 142.25 352.19 143.964C357.639 147.731 361.979 153.244 363.228 160.002C364.474 166.739 362.788 174.048 358.991 179.65C353.974 187.05 346.093 189.825 337.848 191.388C336.733 191.549 335.615 191.69 334.495 191.813C338.708 189.705 342.998 188.376 346.822 185.434C351.542 181.802 354.737 176.715 355.531 170.658C357.385 156.516 341.044 152.168 331.845 146.466C328.736 144.54 325.703 142.018 323.496 139.034C320.25 134.644 318.681 129.146 319.441 123.657C320.348 117.1 324.499 112.077 329.491 108.249Z" fill="#2E79DF"/>
<path d="M101.219 199.355C104.743 199.42 108.274 199.359 111.799 199.347L111.83 228.658C111.833 232.799 112.211 238.349 111.741 242.254C108.224 242.178 104.706 242.174 101.188 242.244C101.484 237.602 101.215 232.782 101.212 228.117L101.219 199.355Z" fill="#2E79DF"/>
<path d="M307.187 199.374L317.622 199.348L317.635 226.331C317.635 231.633 317.524 236.955 317.746 242.252C314.212 242.2 310.678 242.198 307.144 242.246C307.533 227.988 307.126 213.644 307.187 199.374Z" fill="#2E79DF"/>
<path d="M326.445 150.093C326.53 150.102 326.615 150.109 326.699 150.119C330.163 150.536 340.585 156.173 343.613 158.379C345.305 159.611 346.897 161.062 348.169 162.752C350.434 165.759 351.396 169.368 350.895 173.146C350.153 178.737 347.057 182.885 342.786 186.239C341.734 186.872 340.605 187.404 339.513 187.964C341.716 185.946 343.595 183.903 345.007 181.21C347.044 177.324 347.389 172.822 346.113 168.607C343.566 160.194 333.63 154.015 326.445 150.093Z" fill="#2E79DF"/>
<path d="M310.797 181.162C310.893 181.14 310.989 181.12 311.086 181.102C311.183 181.085 311.28 181.07 311.378 181.057C311.475 181.045 311.573 181.034 311.671 181.027C311.769 181.019 311.868 181.014 311.966 181.011C312.064 181.008 312.162 181.008 312.261 181.01C312.359 181.012 312.457 181.017 312.556 181.024C312.654 181.031 312.752 181.04 312.849 181.052C312.947 181.064 313.044 181.079 313.141 181.096C313.238 181.113 313.335 181.132 313.431 181.153C313.527 181.175 313.622 181.199 313.717 181.226C313.812 181.252 313.907 181.281 314 181.312C314.094 181.343 314.186 181.377 314.278 181.413C314.37 181.448 314.461 181.487 314.552 181.527C314.642 181.568 314.731 181.61 314.819 181.655C314.907 181.7 314.994 181.747 315.08 181.796C315.166 181.845 315.251 181.896 315.334 181.95C315.418 182.004 315.5 182.059 315.581 182.117C315.662 182.174 315.741 182.234 315.82 182.295C315.898 182.357 315.974 182.42 316.049 182.486C316.124 182.551 316.198 182.618 316.27 182.687C316.342 182.757 316.412 182.827 316.48 182.9C316.549 182.973 316.615 183.047 316.68 183.123C316.745 183.198 316.809 183.276 316.87 183.355C316.931 183.434 316.991 183.515 317.048 183.597C317.106 183.679 317.161 183.763 317.215 183.847C317.268 183.932 317.32 184.018 317.37 184.106C317.419 184.193 317.466 184.282 317.512 184.371C317.557 184.461 317.6 184.552 317.641 184.644C317.682 184.736 317.721 184.829 317.758 184.923C317.794 185.017 317.828 185.112 317.86 185.207C317.892 185.303 317.922 185.399 317.95 185.496C317.977 185.593 318.003 185.691 318.026 185.79C318.049 185.888 318.069 185.987 318.087 186.086C318.106 186.186 318.122 186.285 318.135 186.386C318.148 186.486 318.16 186.586 318.168 186.687C318.177 186.788 318.184 186.889 318.188 186.99C318.192 187.091 318.193 187.192 318.192 187.293C318.191 187.394 318.188 187.495 318.183 187.596C318.177 187.698 318.169 187.798 318.159 187.899C318.148 187.999 318.136 188.1 318.121 188.2C318.106 188.3 318.088 188.399 318.068 188.498C318.048 188.597 318.026 188.696 318.001 188.794C317.977 188.892 317.95 188.989 317.921 189.086C317.892 189.182 317.861 189.278 317.827 189.373C317.793 189.468 317.757 189.563 317.719 189.656C317.681 189.749 317.641 189.841 317.598 189.933C317.556 190.024 317.512 190.114 317.465 190.203C317.418 190.292 317.37 190.38 317.319 190.467C317.268 190.553 317.215 190.638 317.16 190.722C317.105 190.806 317.048 190.889 316.989 190.97C316.93 191.051 316.87 191.13 316.807 191.208C316.745 191.286 316.68 191.363 316.614 191.438C316.548 191.513 316.48 191.586 316.41 191.657C316.34 191.728 316.269 191.798 316.196 191.866C316.123 191.934 316.049 192 315.972 192.064C315.896 192.128 315.819 192.19 315.74 192.25C315.661 192.311 315.58 192.369 315.498 192.425C315.417 192.481 315.334 192.535 315.249 192.587C315.165 192.639 315.079 192.689 314.993 192.737C314.906 192.785 314.818 192.83 314.729 192.874C314.64 192.917 314.551 192.958 314.46 192.997C314.369 193.036 314.278 193.072 314.185 193.107C314.092 193.141 313.999 193.173 313.905 193.203C313.811 193.232 313.716 193.259 313.621 193.284C313.491 193.318 313.361 193.347 313.23 193.372C313.099 193.397 312.967 193.417 312.835 193.433C312.702 193.449 312.57 193.46 312.436 193.467C312.303 193.474 312.17 193.477 312.036 193.474C311.903 193.472 311.77 193.466 311.637 193.455C311.504 193.443 311.372 193.428 311.24 193.407C311.108 193.387 310.977 193.363 310.846 193.333C310.716 193.304 310.587 193.271 310.459 193.233C310.331 193.195 310.204 193.153 310.078 193.107C309.953 193.06 309.829 193.009 309.707 192.954C309.585 192.899 309.464 192.84 309.346 192.778C309.227 192.714 309.111 192.647 308.997 192.576C308.883 192.506 308.771 192.431 308.662 192.352C308.552 192.274 308.446 192.192 308.342 192.106C308.238 192.02 308.136 191.931 308.038 191.838C307.94 191.746 307.844 191.65 307.752 191.55C307.66 191.451 307.571 191.349 307.485 191.244C307.4 191.139 307.318 191.031 307.239 190.92C307.16 190.809 307.085 190.696 307.014 190.58C306.942 190.465 306.875 190.346 306.811 190.226C306.747 190.105 306.687 189.983 306.631 189.859C306.575 189.734 306.523 189.608 306.475 189.48C306.428 189.352 306.384 189.222 306.344 189.091C306.305 188.96 306.269 188.828 306.238 188.695C306.207 188.561 306.18 188.427 306.158 188.292C306.135 188.157 306.117 188.021 306.104 187.884C306.09 187.748 306.081 187.611 306.076 187.474C306.071 187.337 306.07 187.2 306.074 187.063C306.078 186.925 306.086 186.789 306.099 186.652C306.111 186.516 306.128 186.38 306.15 186.244C306.171 186.109 306.197 185.974 306.227 185.841C306.257 185.707 306.291 185.575 306.329 185.443C306.368 185.312 306.41 185.182 306.457 185.053C306.504 184.925 306.555 184.798 306.61 184.673C306.665 184.548 306.724 184.425 306.787 184.304C306.85 184.184 306.916 184.065 306.987 183.948C307.057 183.832 307.131 183.718 307.209 183.606C307.287 183.495 307.368 183.386 307.453 183.28C307.538 183.175 307.626 183.072 307.717 182.972C307.808 182.872 307.903 182.775 308.001 182.682C308.098 182.588 308.199 182.498 308.302 182.411C308.405 182.325 308.511 182.241 308.62 182.162C308.729 182.082 308.84 182.007 308.953 181.935C309.067 181.863 309.183 181.795 309.301 181.731C309.418 181.667 309.538 181.607 309.66 181.551C309.782 181.495 309.905 181.443 310.03 181.396C310.155 181.348 310.282 181.305 310.41 181.265C310.538 181.227 310.667 181.192 310.797 181.162Z" fill="#2E79DF"/>
<path d="M106.261 181.009C106.359 181.01 106.458 181.013 106.557 181.019C106.655 181.026 106.754 181.034 106.852 181.045C106.95 181.056 107.048 181.07 107.145 181.085C107.243 181.101 107.34 181.12 107.436 181.141C107.533 181.161 107.629 181.184 107.725 181.21C107.82 181.236 107.915 181.264 108.01 181.294C108.104 181.325 108.197 181.358 108.29 181.393C108.382 181.428 108.474 181.465 108.565 181.505C108.656 181.545 108.746 181.587 108.835 181.631C108.923 181.676 109.011 181.722 109.098 181.771C109.184 181.82 109.27 181.87 109.354 181.923C109.438 181.976 109.521 182.032 109.603 182.089C109.684 182.146 109.765 182.205 109.843 182.266C109.922 182.328 109.999 182.391 110.075 182.456C110.151 182.521 110.225 182.588 110.297 182.657C110.37 182.726 110.441 182.796 110.51 182.869C110.58 182.941 110.647 183.016 110.713 183.091C110.778 183.167 110.842 183.245 110.904 183.324C110.966 183.403 111.026 183.483 111.084 183.565C111.143 183.648 111.199 183.731 111.253 183.816C111.307 183.901 111.359 183.987 111.409 184.075C111.459 184.162 111.507 184.251 111.553 184.341C111.599 184.431 111.642 184.522 111.684 184.614C111.725 184.706 111.765 184.799 111.802 184.894C111.839 184.988 111.874 185.083 111.906 185.179C111.939 185.275 111.969 185.371 111.997 185.469C112.025 185.566 112.051 185.664 112.074 185.763C112.097 185.862 112.118 185.961 112.136 186.061C112.155 186.16 112.171 186.26 112.185 186.361C112.199 186.461 112.21 186.562 112.219 186.664C112.228 186.765 112.234 186.866 112.238 186.968C112.243 187.069 112.245 187.171 112.244 187.272C112.243 187.374 112.24 187.475 112.234 187.577C112.229 187.678 112.221 187.779 112.21 187.88C112.2 187.981 112.188 188.082 112.172 188.182C112.157 188.282 112.14 188.382 112.12 188.482C112.1 188.581 112.078 188.68 112.053 188.779C112.028 188.877 112.001 188.975 111.972 189.072C111.943 189.169 111.911 189.265 111.877 189.361C111.843 189.456 111.807 189.55 111.769 189.644C111.731 189.737 111.69 189.83 111.647 189.922C111.604 190.013 111.56 190.104 111.512 190.193C111.466 190.282 111.416 190.37 111.365 190.457C111.314 190.544 111.261 190.629 111.205 190.713C111.15 190.798 111.092 190.88 111.033 190.961C110.974 191.043 110.913 191.122 110.85 191.2C110.787 191.279 110.722 191.355 110.655 191.43C110.588 191.505 110.52 191.578 110.45 191.649C110.379 191.721 110.308 191.791 110.234 191.858C110.16 191.926 110.085 191.992 110.009 192.056C109.932 192.12 109.854 192.182 109.774 192.242C109.695 192.302 109.614 192.36 109.531 192.416C109.449 192.473 109.365 192.526 109.28 192.578C109.195 192.63 109.109 192.68 109.022 192.727C108.935 192.775 108.846 192.82 108.757 192.863C108.667 192.906 108.577 192.946 108.485 192.985C108.394 193.023 108.302 193.06 108.209 193.093C108.115 193.127 108.021 193.158 107.927 193.187C107.832 193.216 107.737 193.243 107.641 193.267C107.545 193.292 107.449 193.314 107.352 193.333C107.255 193.352 107.158 193.369 107.06 193.384C106.962 193.398 106.864 193.41 106.766 193.42C106.667 193.43 106.569 193.437 106.47 193.441C106.372 193.446 106.273 193.448 106.174 193.447C106.075 193.447 105.976 193.444 105.877 193.439C105.778 193.433 105.679 193.425 105.581 193.415C105.482 193.405 105.383 193.392 105.285 193.376C105.187 193.361 105.09 193.343 104.993 193.323C104.895 193.302 104.799 193.28 104.702 193.255C104.606 193.23 104.511 193.202 104.416 193.172C104.321 193.142 104.227 193.109 104.134 193.074C104.041 193.04 103.949 193.003 103.857 192.963C103.766 192.924 103.675 192.882 103.586 192.838C103.496 192.794 103.408 192.747 103.321 192.699C103.233 192.65 103.147 192.6 103.063 192.547C102.978 192.494 102.894 192.439 102.812 192.382C102.73 192.325 102.649 192.266 102.57 192.205C102.49 192.143 102.413 192.08 102.336 192.015C102.26 191.95 102.185 191.883 102.112 191.814C102.039 191.745 101.968 191.674 101.898 191.602C101.828 191.529 101.76 191.455 101.694 191.379C101.628 191.303 101.563 191.225 101.501 191.146C101.438 191.067 101.378 190.986 101.319 190.904C101.261 190.822 101.204 190.738 101.149 190.653C101.095 190.568 101.042 190.482 100.992 190.394C100.941 190.306 100.893 190.217 100.847 190.126C100.8 190.036 100.756 189.945 100.714 189.852C100.673 189.76 100.633 189.666 100.596 189.572C100.558 189.478 100.523 189.382 100.49 189.286C100.457 189.19 100.427 189.093 100.399 188.995C100.371 188.897 100.345 188.799 100.321 188.7C100.298 188.6 100.277 188.501 100.258 188.401C100.239 188.3 100.223 188.2 100.21 188.099C100.196 187.998 100.184 187.896 100.175 187.795C100.166 187.693 100.159 187.591 100.155 187.489C100.151 187.388 100.149 187.286 100.15 187.184C100.151 187.082 100.154 186.98 100.159 186.878C100.165 186.776 100.173 186.675 100.183 186.573C100.194 186.472 100.207 186.37 100.222 186.269C100.237 186.169 100.255 186.069 100.275 185.968C100.295 185.869 100.318 185.769 100.342 185.671C100.367 185.572 100.394 185.474 100.424 185.376C100.453 185.279 100.485 185.182 100.52 185.087C100.554 184.991 100.59 184.896 100.629 184.802C100.668 184.708 100.708 184.615 100.751 184.524C100.794 184.432 100.84 184.341 100.887 184.251C100.935 184.162 100.984 184.073 101.036 183.987C101.088 183.899 101.141 183.814 101.197 183.729C101.253 183.645 101.311 183.562 101.371 183.481C101.43 183.399 101.492 183.319 101.556 183.241C101.619 183.163 101.685 183.086 101.752 183.011C101.819 182.936 101.888 182.863 101.959 182.792C102.03 182.72 102.102 182.65 102.176 182.583C102.25 182.515 102.326 182.449 102.403 182.385C102.48 182.321 102.559 182.259 102.639 182.199C102.719 182.139 102.801 182.081 102.884 182.025C102.967 181.969 103.051 181.915 103.137 181.864C103.222 181.812 103.309 181.762 103.397 181.715C103.485 181.668 103.574 181.623 103.664 181.581C103.754 181.538 103.845 181.497 103.937 181.459C104.029 181.421 104.122 181.385 104.216 181.352C104.309 181.318 104.404 181.287 104.499 181.259C104.594 181.23 104.69 181.204 104.786 181.18C104.883 181.156 104.98 181.135 105.077 181.116C105.175 181.097 105.272 181.081 105.371 181.067C105.469 181.053 105.568 181.041 105.666 181.032C105.765 181.023 105.864 181.017 105.963 181.013C106.062 181.009 106.161 181.008 106.261 181.009Z" fill="#2E79DF"/>
</svg>
